<?xml version="1.0" encoding="utf-8"?>
<!-- Generator: Adobe Illustrator 17.0.0, SVG Export Plug-In . SVG Version: 6.00 Build 0)  -->
<!DOCTYPE svg PUBLIC "-//W3C//DTD SVG 1.1//EN" "http://www.w3.org/Graphics/SVG/1.1/DTD/svg11.dtd">
<svg version="1.1" id="Layer_1" xmlns="http://www.w3.org/2000/svg" xmlns:xlink="http://www.w3.org/1999/xlink" x="0px" y="0px"
	 width="512px" height="512px" viewBox="0 0 512 512" enable-background="new 0 0 512 512" xml:space="preserve">
<path id="tv-17-icon" fill="#538DC2" d="M272.334,155.875l65.033-64.945l-14.805-14.805l-66.584,66.584l-66.541-66.542
	l-14.805,14.805l64.99,64.903H50v280h412v-280H272.334z M110,395.875v-200h292v200H110z M214.105,233.339
	c-12.295,0-22.265,9.968-22.265,22.264s9.97,22.263,22.265,22.263c12.297,0,22.264-9.967,22.264-22.263
	S226.402,233.339,214.105,233.339z M297.895,233.339c-12.296,0-22.265,9.968-22.265,22.264s9.969,22.263,22.265,22.263
	c12.297,0,22.262-9.967,22.262-22.263S310.191,233.339,297.895,233.339z M326.621,307.192
	c-19.391,15.321-40.697,24.756-70.621,24.756c-29.925,0-51.23-9.435-70.621-24.756l-6.314,6.312
	c14.454,22.055,41.027,45.734,76.936,45.734s62.481-23.68,76.936-45.734L326.621,307.192z"/>
</svg>
